/* XPM */
static char * bag_coins_xpm[] = {
"16 16 6 1",
" 	c None",
".	c #000000",
"+	c #663931",
"@	c #D18C47",
"#	c #D9A066",
"$	c #DDD540",
"................",
"................",
"................",
"................",
"................",
"................",
"................",
".......+@#......",
"......@@+.......",
".....$.###......",
"...$..@##@.$....",
"..$.$..@@$......",
"................",
"................",
"................",
"................"};
