/* XPM */
static char * cell_xpm[] = {
"16 16 3 1",
" 	c #FFC90E",
".	c #000000",
"+	c #22B14C",
"                ",
"  .          .  ",
"  .          .  ",
"   ..........   ",
"    .++..++.    ",
"     .+..+.     ",
"     .+..+.     ",
"    .++..++.    ",
"    .++..++.    ",
"    .++..++.    ",
"    .++..++.    ",
"    .++..++.    ",
"     ......     ",
"                ",
"                ",
"                "};
