/* XPM */
static char * flag_red_xpm[] = {
"16 16 9 1",
" 	c None",
".	c #000000",
"+	c #A4A4A4",
"@	c #983944",
"#	c #DF7834",
"$	c #898989",
"%	c #783139",
"&	c #A3511E",
"*	c #191919",
".++@#@@@@@@#@++.",
".$$%&%%%%%%&%$$.",
".**%&@@@@@@&%**.",
".**%#@@@@@@#%**.",
".**@#@@@@@@#@**.",
".**@#@@@@@@#@**.",
".**@#@@@@@@#@**.",
".**@#@@*@@@#@**.",
".**@#@@@@@@#@**.",
".**@#@@@@@@#@**.",
".***#@@*@*@#@**.",
".***#@@@@*@#@**.",
".***#@*@@*@#@**.",
".***#@*@@*@#***.",
".*********@#***.",
"................"};
