/* XPM */
static char * flag_green_xpm[] = {
"16 16 9 1",
" 	c None",
".	c #000000",
"+	c #A4A4A4",
"@	c #4B692F",
"#	c #983944",
"$	c #898989",
"%	c #3C5426",
"&	c #783139",
"*	c #191919",
".++@#@@@@@@#@++.",
".$$%&%%%%%%&%$$.",
".**%&@@@@@@&%**.",
".**%#@@@@@@#%**.",
".**@#@@@@@@#@**.",
".**@#@@@@@@#@**.",
".**@#@@@@@@#@**.",
".**@#@@@@@@#@**.",
".**@#@@@@@@#@**.",
".**@#@@@@@@#@**.",
".**@#@@@.@@#@**.",
".**@#@..@@.#.**.",
".**@#@@.@..#.**.",
".**.#@@@@....**.",
".**.#.@@@....**.",
"................"};
