/* XPM */
static char * floor_xpm[] = {
"16 16 5 1",
" 	c None",
".	c #514047",
"+	c #77514C",
"@	c #8D5D57",
"#	c #59413E",
".+++........++..",
"++++++....++++@.",
"++++++@..+++++@.",
"++++++@..+++++@.",
"+++++@@..++++@@.",
"#@@@@@#..#@@@@#.",
".#####....####..",
"................",
"..........++....",
"...+++....++....",
"..++++..........",
"..++++..........",
"...++....+..++..",
"............++..",
"................",
"................"};
