/* XPM */
static char * goblin_xpm[] = {
"16 16 7 1",
" 	c None",
".	c #000000",
"+	c #060608",
"@	c #683E2C",
"#	c #7E4C35",
"$	c #3A5124",
"%	c #4B692F",
"................",
"......+++++.....",
".....+@###@+....",
"..+++@#####@+++.",
"..+$%%######%$+.",
"...+$%#$$$$$$+..",
"...+@%@$$$$$+...",
"...+@$$%+%%++...",
"...+@@$%%%%%+...",
"....+@$%%%%%+...",
".....+$%%%%%+...",
".....+$$+++$+...",
".....+$+.+$+....",
".....++..++.....",
"................",
"................"};
