/* XPM */
static char * human_xpm[] = {
"16 16 8 1",
" 	c None",
".	c #000000",
"+	c #262B44",
"@	c #181425",
"#	c #E4A672",
"$	c #B86F50",
"%	c #FFFFFF",
"&	c #0095E9",
"................",
".....++++++.....",
"....++++++++....",
"....@++++++@....",
"....@@++++@@....",
"....@#@@@@#@....",
"....@######@....",
"....@#@##@#@....",
"....########....",
"....#$####$#....",
"....#$%%%%$#....",
".....+&&&&+.....",
"....++@++@++....",
"....++++++++....",
".....++++++.....",
"................"}
