/* XPM */
static char * Terrain_xpm[] = {
"32 32 7 1",
" 	c None",
".	c #6E5967",
"+	c #926475",
"@	c #AD707B",
"#	c #B77F83",
"$	c #C39490",
"%	c #D1B1A5",
"................................",
"................................",
"................................",
"................................",
"......+@@@@@@@@@@@@@@@@@@+......",
"......@@@@@@@@@@@@@@@@@@@@......",
"......@@@@@@@@@@@@@@@@@@@@......",
"......+@@@@@@@@@@@@@@@@@@+......",
"................................",
"......+@@@@@@@@.+@@@@@@@@+......",
"......@@@@@@@@@.@@@@@@@@@@......",
"......@@@@@#$$#.#$$$#@@@@@......",
"......@@@@@$$$$.$$$$$@@@@@......",
"......@@@@@$$$$...$@@+@++@......",
"......@@@@@$$$$.$$$$$@@@@@......",
"......+@@@@#$$@.@$$$#@@@@+......",
"................................",
"....+@@@@@@#$%%$%%%$#@@@@@@+....",
"....@@@@@@@$$$$$$$$$@@@@@@@@....",
"....@@@@@@@$$$$$$$$$@@@@@@@@....",
"....@@@@@@@$$$$$$$$$@@@++@......",
"....@@@@@@@$$$$$$$$$@@@@@@@@....",
"....@@@@@@@$$$$$$$$$@@@@@@@@....",
"....+@@@@@@#$$$$$$$#@@@@@@@+....",
"................................",
"......+@@@@$$$@.@$$$@@@@@+......",
"......@@@@@#$$$.$$$#@@@@@@......",
"......@@@++@....@@@@@@@@@@......",
"......@@@@@@@@@.@@@@@@@@@@......",
"......+@@@@@@@+.+@@@@@@@@+......",
"................................",
"................................"};
